<svg width="18" height="15" viewBox="0 0 18 15" fill="none" xmlns="http://www.w3.org/2000/svg">
<g clip-path="url(#clip0_174_2212)">
<path d="M1.8 12H3.6V15H14.4V12H16.2C17.19 12 18 11.325 18 10.5V6C18 5.175 17.19 4.5 16.2 4.5H14.4V0H3.6V4.5H1.8C0.81 4.5 0 5.175 0 6V10.5C0 11.325 0.81 12 1.8 12ZM12.6 13.5H5.4V9H12.6V13.5ZM5.4 1.5H12.6V4.5H5.4V1.5ZM1.8 6H16.2V10.5H14.4V7.5H3.6V10.5H1.8V6Z" fill="#53605F"/>
</g>
<defs>
<clipPath id="clip0_174_2212">
<rect width="18" height="15" fill="white"/>
</clipPath>
</defs>
</svg>
