<svg width="220" height="34" viewBox="0 0 220 34" fill="none" xmlns="http://www.w3.org/2000/svg">
<g clip-path="url(#clip0_1020_8)">
<path d="M17.2652 10.2522H10.2495V3.23264C10.2495 1.44511 11.6976 -0.00358295 13.484 -0.00358295H20.4992V7.01619C20.4992 8.80343 19.0516 10.2522 17.2652 10.2522Z" fill="#EA4B22"/>
<path d="M17.2652 30.7643H10.2495V23.7448C10.2495 21.9567 11.6976 20.5083 13.484 20.5083H20.4992V27.5277C20.4992 29.3158 19.0516 30.7643 17.2652 30.7643Z" fill="#EA4B22"/>
<path d="M27.5147 20.5083H20.499V13.4885C20.499 11.7012 21.9471 10.2525 23.7329 10.2525H30.7487V17.2723C30.7487 19.0589 29.3006 20.5083 27.5147 20.5083Z" fill="#EA4B22"/>
<path d="M7.01543 20.5083H0V13.4885C0 11.7012 1.44783 10.2525 3.23452 10.2525H10.2494V17.2723C10.2494 19.0589 8.80182 20.5083 7.01543 20.5083Z" fill="#EA4B22"/>
<path d="M151.416 11.8938C150.595 11.8792 149.76 11.8653 148.781 11.8653C148.349 11.8653 147.89 11.8653 147.472 11.8792C147.457 12.139 147.457 12.5136 147.457 12.7141V14.6877L150.739 14.6737C150.71 15.1053 150.696 15.609 150.696 16.1421L147.457 16.1137V18.4607C147.457 19.0234 147.457 20.1321 147.515 20.5353H145.514C145.586 19.8446 145.615 18.0008 145.615 17.0649V13.8807C145.615 12.9591 145.586 11.0156 145.514 10.3238C146.42 10.3674 147.443 10.3958 148.551 10.3958C149.616 10.3958 150.623 10.3674 151.517 10.3238C151.458 10.8424 151.43 11.3029 151.416 11.8938Z" fill="#EA4B22"/>
<path d="M154.463 20.5358C154.536 19.844 154.564 18.0007 154.564 17.0643V13.8813C154.564 12.9593 154.536 11.1016 154.463 10.4106C155.039 10.4106 155.989 10.3961 156.464 10.338C156.421 10.7559 156.406 11.908 156.406 12.4698V18.4607C156.406 19.0092 156.421 20.1321 156.464 20.5358H154.463Z" fill="#EA4B22"/>
<path d="M166.307 20.6505L163.888 16.7623H162.506V18.4607C162.506 19.0092 162.52 20.1322 162.55 20.5358H160.563C160.636 19.844 160.664 18.0008 160.664 17.0644V13.8813C160.664 12.9593 160.636 11.1013 160.563 10.4101C161.081 10.4101 162.78 10.3529 163.442 10.3381C166.134 10.3094 167.602 11.6631 167.559 13.3343C167.529 14.7461 166.825 15.6677 165.5 16.3011L167.054 18.5626C167.415 19.0812 168.105 20.0312 168.423 20.4491L166.307 20.6505ZM163.801 15.3647C165.011 15.3647 165.731 14.5728 165.731 13.5932C165.731 12.4837 165.083 11.8364 163.614 11.8364C163.212 11.8364 162.837 11.85 162.492 11.8795V15.3647H163.801Z" fill="#EA4B22"/>
<path d="M173.455 20.7947C172.447 20.7947 171.224 20.4201 170.462 19.945L170.549 18.1444C171.152 18.663 172.39 19.2396 173.528 19.2396C174.491 19.2396 175.138 18.7494 175.138 17.8281C175.138 16.0565 170.807 15.8693 170.807 13.1616C170.807 11.4039 172.174 10.1654 174.103 10.1654C175.11 10.1654 176.046 10.4968 176.636 10.9139L176.176 12.4268C175.628 12.0383 174.794 11.7214 174.117 11.7214C173.211 11.7214 172.607 12.24 172.607 13.0032C172.607 14.6735 176.924 14.7739 176.924 17.6552C176.924 19.4833 175.571 20.7947 173.455 20.7947Z" fill="#EA4B22"/>
<path d="M187.715 11.9515C186.65 11.9364 185.715 11.9225 184.462 11.9225C184.448 12.2249 184.448 12.5995 184.448 12.8436V18.4607C184.448 19.0092 184.462 20.1321 184.505 20.5358H182.504C182.577 19.844 182.606 18.0007 182.606 17.0643V14.2269C182.606 13.6363 182.606 12.6999 182.577 11.9225C181.324 11.9225 180.331 11.9364 179.266 11.9515C179.31 11.4758 179.323 10.8711 179.323 10.3244C180.648 10.3665 181.944 10.3961 183.527 10.3961C185.139 10.3961 186.477 10.3665 187.83 10.3244C187.758 10.8427 187.73 11.3317 187.715 11.9515Z" fill="#EA4B22"/>
<path d="M195.828 13.161C196.374 11.9516 196.734 11.1309 197.052 10.3094L197.972 10.1948L201.341 17.5977C201.758 18.5043 202.29 19.6711 202.736 20.5358L200.736 20.6505L199.571 17.9572H195.497L195.482 18.0008C195.195 18.7062 194.749 19.844 194.46 20.5358H192.503L195.828 13.161ZM196.044 16.6181H199.009L197.526 13.1042L196.044 16.6181Z" fill="#EA4B22"/>
<path d="M205.293 20.5358C205.366 19.844 205.394 18.0007 205.394 17.0643V13.8813C205.394 12.9593 205.366 11.1016 205.293 10.4106C205.869 10.4106 206.819 10.3961 207.295 10.338C207.25 10.7559 207.237 11.908 207.237 12.4698V18.4607C207.237 19.0092 207.25 20.1321 207.295 20.5358H205.293Z" fill="#EA4B22"/>
<path d="M214.676 20.5358H211.407C211.479 19.844 211.508 18.0007 211.508 17.0643V13.8813C211.508 12.9593 211.479 11.1016 211.407 10.4106C211.925 10.4106 212.962 10.338 214.387 10.338C218.044 10.338 219.986 12.441 219.986 15.1925C219.986 18.3605 217.87 20.5358 214.676 20.5358ZM214.46 11.8363C214.056 11.8363 213.711 11.8499 213.366 11.8795C213.351 12.1242 213.351 12.4982 213.351 12.7144V18.2164C213.351 18.4473 213.351 18.7061 213.366 18.9659C213.74 19.0092 214.027 19.0376 214.502 19.0376C217.108 19.0376 218.144 17.3664 218.144 15.3507C218.144 13.2182 216.834 11.8363 214.46 11.8363Z" fill="#EA4B22"/>
<path d="M39.4732 16.6502L39.9533 13.0982C40.0972 12.0585 40.3527 9.97768 40.4169 9.13005L41.4077 9.01768C41.7121 9.72193 42.1596 10.7144 42.4794 11.3698L45.2617 17.4026L48.0118 11.3533L49.0354 9.03385H49.9946C50.0907 9.94586 50.3795 12.0741 50.5063 13.0817L51.0026 16.6502C51.1468 17.6907 51.4828 19.6748 51.6582 20.5068L49.5636 20.634C49.5471 20.1706 49.4033 18.8427 49.3081 18.2027L48.7 13.6418C47.9646 15.2581 45.8217 20.0261 45.5655 20.6505L44.798 20.7463C44.5419 20.1384 42.4479 15.3867 41.6803 13.6745L41.1041 18.2027C41.0245 18.8266 40.896 20.0583 40.8801 20.5068H38.8335C39.0254 19.6586 39.3287 17.7072 39.4732 16.6502Z" fill="#4C5A5A"/>
<path d="M59.25 17.0823L54.8369 17.21C54.9487 18.5541 55.6685 19.2432 57.0117 19.2432C58.1784 19.2432 59.0426 18.7782 59.778 18.234L59.7299 19.8981C58.8657 20.4585 57.9228 20.7947 56.8036 20.7947C54.213 20.7947 52.9658 19.0186 52.9658 16.9543C52.9658 14.5861 54.5165 12.7781 56.8678 12.7781C59.1383 12.7781 60.1132 14.4422 60.1132 16.4903L59.25 17.0823ZM58.3705 15.9621C58.2426 14.8427 57.779 14.2345 56.7871 14.2345C55.7156 14.2345 55.0283 15.0185 54.8685 16.0744L58.3705 15.9621Z" fill="#4C5A5A"/>
<path d="M66.8919 20.5068C66.9715 19.8185 67.0034 18.7148 67.0034 17.7868V15.9302C67.0034 15.0023 66.7318 14.3623 65.8529 14.3623C64.8767 14.3623 63.9172 15.3058 63.9172 16.1859V18.8584C63.9172 19.4188 63.9337 20.0907 63.9814 20.5068H61.9028C61.967 19.8185 61.9986 18.7148 61.9986 17.7868V15.722C61.9986 14.7947 61.967 13.7379 61.9028 13.0501C62.4625 13.0501 63.3097 12.9537 63.7895 12.9059L63.9013 14.4257C64.5253 13.3864 65.6283 12.7782 66.5877 12.7782C68.1711 12.7782 68.9231 13.7857 68.9231 15.4663V18.8584C68.9231 19.4188 68.9549 20.0907 68.987 20.5068H66.8919Z" fill="#4C5A5A"/>
<path d="M75.3486 20.3142C74.9483 20.5865 74.2773 20.7463 73.7337 20.7463C72.2303 20.7463 71.4946 20.0105 71.4946 18.3464V14.4422H70.167L70.5508 12.9536H71.5111L71.6547 11.386L73.4135 10.8413V12.9536H75.3799C75.3486 13.3064 75.3326 13.8665 75.3326 14.4422H73.4135V18.1865C73.4135 18.9546 73.701 19.1628 74.2286 19.1628C74.6289 19.1628 75.0764 19.0021 75.3966 18.7944L75.3486 20.3142Z" fill="#4C5A5A"/>
<path d="M76.6426 18.5702C76.6426 17.0504 77.9693 16.0422 80.5441 16.0422C80.7522 16.0422 80.9596 16.0579 81.1677 16.0744L81.1838 15.8503C81.2158 14.8578 80.7842 14.3782 79.7443 14.3782C78.9612 14.3782 78.1134 14.6982 77.5697 15.0825L77.2335 13.5627C78.0501 13.0822 79.0573 12.7778 80.0965 12.7778C82.1429 12.7778 83.0868 13.8977 83.0395 15.7387L82.958 18.7303C82.9435 19.1784 83.0708 19.3542 83.407 19.3542C83.5824 19.3542 83.7746 19.3064 83.9827 19.2424L83.8379 20.4593C83.5024 20.5865 83.1662 20.6988 82.7353 20.6988C82.0309 20.6988 81.4239 20.3142 81.2958 19.45C80.8483 20.2024 79.9837 20.7145 78.9772 20.7145C77.5537 20.7145 76.6426 19.8824 76.6426 18.5702ZM81.1197 17.8022L81.1517 17.082C80.9443 17.0666 80.7682 17.0504 80.5593 17.0504C79.0092 17.0504 78.4496 17.6423 78.4496 18.379C78.4496 18.9707 78.7858 19.4022 79.5529 19.4022C80.4327 19.4022 81.0724 18.7625 81.1197 17.8022Z" fill="#4C5A5A"/>
<path d="M85.4834 20.5068C85.5627 19.8185 85.5947 18.7944 85.5947 17.8662V11.7539C85.5947 10.8257 85.5627 9.8335 85.4834 9.14564C86.0583 9.09758 87.0983 9.00204 87.5779 8.90584C87.5306 9.32201 87.5138 10.4098 87.5138 10.8257V18.9389C87.5138 19.4984 87.5306 20.0907 87.5779 20.5068H85.4834Z" fill="#4C5A5A"/>
<path d="M101.424 20.5068C101.52 19.7388 101.552 17.7538 101.552 16.7145V15.4984H96.211V18.2027C96.211 18.8106 96.227 20.0583 96.2743 20.5068H94.0518C94.1318 19.7388 94.1646 17.6907 94.1646 16.6499V13.1136C94.1646 12.0901 94.1318 10.0263 94.0518 9.25771C94.6762 9.25771 95.7474 9.24183 96.2743 9.17811C96.227 9.64205 96.211 10.9221 96.211 11.5456V13.8821H101.552V13.1136C101.552 12.0901 101.52 10.0263 101.424 9.25771C102.064 9.25771 103.135 9.24183 103.646 9.17811C103.615 9.64205 103.599 10.9221 103.599 11.5456V18.2027C103.599 18.8106 103.615 20.0583 103.646 20.5068H101.424Z" fill="#4C5A5A"/>
<path d="M111.543 17.0823L107.13 17.21C107.242 18.5541 107.961 19.2432 109.305 19.2432C110.472 19.2432 111.335 18.7782 112.071 18.234L112.024 19.8981C111.159 20.4585 110.216 20.7947 109.097 20.7947C106.507 20.7947 105.259 19.0186 105.259 16.9543C105.259 14.5861 106.81 12.7781 109.161 12.7781C111.431 12.7781 112.407 14.4422 112.407 16.4903L111.543 17.0823ZM110.664 15.9621C110.536 14.8427 110.072 14.2345 109.081 14.2345C108.009 14.2345 107.322 15.0185 107.162 16.0744L110.664 15.9621Z" fill="#4C5A5A"/>
<path d="M113.701 18.5702C113.701 17.0504 115.027 16.0422 117.601 16.0422C117.81 16.0422 118.017 16.0579 118.225 16.0744L118.242 15.8503C118.274 14.8578 117.842 14.3782 116.802 14.3782C116.019 14.3782 115.171 14.6982 114.628 15.0825L114.292 13.5627C115.107 13.0822 116.115 12.7778 117.155 12.7778C119.201 12.7778 120.145 13.8977 120.097 15.7387L120.016 18.7303C120.001 19.1784 120.129 19.3542 120.464 19.3542C120.641 19.3542 120.831 19.3064 121.039 19.2424L120.896 20.4593C120.56 20.5865 120.224 20.6988 119.793 20.6988C119.089 20.6988 118.482 20.3142 118.353 19.45C117.906 20.2024 117.042 20.7145 116.035 20.7145C114.611 20.7145 113.701 19.8824 113.701 18.5702ZM118.178 17.8022L118.21 17.082C118.002 17.0666 117.825 17.0504 117.617 17.0504C116.067 17.0504 115.508 17.6423 115.508 18.379C115.508 18.9707 115.843 19.4022 116.611 19.4022C117.491 19.4022 118.129 18.7625 118.178 17.8022Z" fill="#4C5A5A"/>
<path d="M122.221 20.5068C122.301 19.8185 122.333 18.7944 122.333 17.8662V11.7539C122.333 10.8257 122.301 9.8335 122.221 9.14564C122.797 9.09758 123.836 9.00204 124.316 8.90584C124.268 9.32201 124.252 10.4098 124.252 10.8257V18.9389C124.252 19.4984 124.268 20.0907 124.316 20.5068H122.221Z" fill="#4C5A5A"/>
<path d="M131.031 20.3142C130.631 20.5865 129.96 20.7463 129.416 20.7463C127.913 20.7463 127.177 20.0105 127.177 18.3464V14.4422H125.851L126.234 12.9536H127.194L127.337 11.386L129.097 10.8413V12.9536H131.063C131.031 13.3064 131.015 13.8665 131.015 14.4422H129.097V18.1865C129.097 18.9546 129.384 19.1628 129.912 19.1628C130.312 19.1628 130.76 19.0021 131.079 18.7944L131.031 20.3142Z" fill="#4C5A5A"/>
<path d="M137.81 20.5068C137.89 19.8185 137.922 18.7148 137.922 17.7868V15.9302C137.922 15.0023 137.65 14.3623 136.771 14.3623C135.795 14.3623 134.851 15.2743 134.835 16.1859V18.9389C134.835 19.4984 134.851 20.0907 134.899 20.5068H132.821C132.885 19.8185 132.917 18.7944 132.917 17.8662V11.7539C132.917 10.8257 132.885 9.8335 132.821 9.14564C133.38 9.09758 134.42 9.00204 134.899 8.90584C134.851 9.32201 134.835 10.4098 134.835 10.8257V14.4101C135.459 13.3698 136.563 12.7782 137.506 12.7782C139.088 12.7782 139.84 13.7857 139.84 15.4663V18.8584C139.84 19.4188 139.873 20.0907 139.905 20.5068H137.81Z" fill="#4C5A5A"/>
<path d="M40.4116 30.4301L40.1086 32.9191C40.0136 33.7027 39.6518 34 39.2898 34C39.1116 34 38.9868 33.9516 38.8802 33.8925L38.8208 33.4416C38.9276 33.5008 39.0408 33.5306 39.1534 33.5306C39.3788 33.5306 39.5508 33.3637 39.5985 32.966L39.895 30.4301H39.331L39.5508 29.9727H39.9488L39.9602 29.8896C40.0847 28.9518 40.4238 28.4523 41.0822 28.4523C41.2005 28.4523 41.3253 28.4759 41.4026 28.5057L41.373 29.0049C41.284 28.9694 41.2005 28.9518 41.0706 28.9518C40.7621 28.9518 40.5662 29.1893 40.5006 29.7354L40.4707 29.9727H41.1832C41.1535 30.1035 41.1243 30.2167 41.1004 30.4301H40.4116Z" fill="#4C5A5A"/>
<path d="M43.2188 30.5189C43.189 30.5132 43.1591 30.5132 43.1299 30.5132C42.7026 30.5132 42.3398 31.036 42.1861 31.482L42.0848 32.1169C42.0496 32.3308 42.0141 32.5743 42.0075 32.7285H41.4443C41.5032 32.4731 41.5623 32.0691 41.6161 31.7187L41.723 31.0061C41.7767 30.6562 41.7818 30.3291 41.7818 29.9969C41.9842 29.9906 42.1209 29.9727 42.293 29.9428C42.3345 30.1508 42.3398 30.4364 42.287 30.7862C42.613 30.2102 42.8274 29.967 43.284 29.9133L43.2188 30.5189Z" fill="#4C5A5A"/>
<path d="M44.7379 32.8361C44.0199 32.8361 43.6992 32.3189 43.6992 31.6539C43.6992 30.7211 44.3223 29.9133 45.1294 29.9133C45.8481 29.9133 46.1682 30.4301 46.1682 31.0958C46.1682 32.0282 45.5453 32.8361 44.7379 32.8361ZM44.809 32.3607C45.284 32.3607 45.6286 31.8203 45.6286 31.1435C45.6286 30.6386 45.4441 30.3889 45.0586 30.3889C44.5836 30.3889 44.2394 30.9285 44.2394 31.6064C44.2394 32.1113 44.4233 32.3607 44.809 32.3607Z" fill="#4C5A5A"/>
<path d="M50.8564 32.0393C50.8212 32.2714 50.8388 32.3422 50.9872 32.3422C51.0759 32.3422 51.1415 32.3189 51.2425 32.2771L51.1771 32.6574C51.0407 32.7351 50.8681 32.7939 50.708 32.7939C50.3521 32.7939 50.2333 32.6338 50.3163 32.0933L50.4829 31.007C50.5417 30.6264 50.5539 30.3946 50.287 30.3946C49.8353 30.3946 49.414 31.0602 49.2662 31.4812L49.1652 32.1169C49.1294 32.3308 49.0939 32.5743 49.0877 32.7285H48.5239C48.5836 32.4731 48.6425 32.0692 48.6962 31.7187L48.7493 31.3566C48.8559 30.6386 48.8858 30.3946 48.6134 30.3946C48.1617 30.3946 47.7407 31.0602 47.5918 31.4812L47.4914 32.1169C47.4556 32.3308 47.4198 32.5743 47.4141 32.7285H46.8501C46.9092 32.4731 46.9689 32.0692 47.0224 31.7187L47.1295 31.007C47.1827 30.6563 47.2003 30.2816 47.1884 29.9963C47.3902 29.9906 47.5267 29.9727 47.6987 29.9428C47.7225 30.0384 47.7583 30.4065 47.6927 30.7871C48.0369 30.2225 48.4173 29.9133 48.8389 29.9133C49.3432 29.9133 49.4378 30.305 49.3671 30.7871C49.7113 30.2225 50.0909 29.9133 50.5127 29.9133C51.023 29.9133 51.1182 30.2998 51.0287 30.8995L50.8564 32.0393Z" fill="#4C5A5A"/>
<path d="M134.268 28.9395C133.905 28.9338 133.531 28.9276 133.095 28.9276C132.91 28.9276 132.713 28.9276 132.534 28.9338C132.529 29.051 132.529 29.2169 132.529 29.3093V30.293L133.985 30.2873C133.973 30.4343 133.967 30.6312 133.967 30.8093L132.529 30.797V31.8794C132.529 32.1192 132.529 32.5928 132.547 32.764H131.884C131.915 32.4696 131.926 31.6825 131.926 31.2829V29.9237C131.926 29.5303 131.915 28.7006 131.884 28.4048C132.239 28.4241 132.658 28.436 133.095 28.436C133.531 28.436 133.949 28.4241 134.311 28.4048C134.287 28.5831 134.274 28.7433 134.268 28.9395Z" fill="#4C5A5A"/>
<path d="M135.667 30.7174C135.667 29.389 136.57 28.3371 137.885 28.3371C139.139 28.3371 139.988 29.3335 139.988 30.4955C139.988 31.8239 139.083 32.875 137.769 32.875C136.515 32.875 135.667 31.8794 135.667 30.7174ZM139.366 30.6059C139.366 29.5176 138.709 28.8477 137.836 28.8477C136.914 28.8477 136.288 29.6592 136.288 30.6059C136.288 31.6954 136.945 32.3653 137.818 32.3653C138.74 32.3653 139.366 31.5531 139.366 30.6059Z" fill="#4C5A5A"/>
<path d="M143.991 32.8073L142.879 31.061H142.197V31.8794C142.197 32.1126 142.203 32.5928 142.215 32.7646H141.551C141.582 32.4696 141.594 31.6825 141.594 31.2829V29.9237C141.594 29.5303 141.582 28.737 141.551 28.4417C141.773 28.4417 142.399 28.4167 142.682 28.4113C143.757 28.3925 144.354 28.9893 144.335 29.6657C144.317 30.2614 144.009 30.6619 143.425 30.9199L144.058 31.8481C144.225 32.0819 144.562 32.5555 144.704 32.7276L143.991 32.8073ZM142.842 30.5575C143.395 30.5575 143.714 30.1817 143.714 29.7459C143.714 29.2168 143.388 28.9338 142.743 28.9338C142.54 28.9338 142.363 28.9395 142.197 28.9523V30.5575H142.842Z" fill="#4C5A5A"/>
<path d="M54.3508 31.2459L54.375 29.7701C54.3809 29.377 54.375 28.6388 54.3508 28.3436L54.5102 28.3009L57.3497 31.5898V29.8867C57.3497 29.4933 57.3374 28.7 57.3002 28.4056C57.5401 28.4056 57.7738 28.399 57.9824 28.374C57.958 28.5526 57.9398 29.0447 57.933 29.2843L57.8904 31.8794C57.8841 32.1183 57.8841 32.6169 57.9026 32.7888L57.7426 32.8323L54.9287 29.5918V31.8424C54.9287 32.0819 54.9347 32.5555 54.9532 32.7276H54.2769C54.3138 32.4326 54.3445 31.6452 54.3508 31.2459Z" fill="#4C5A5A"/>
<path d="M60.9916 29.5796C61.2315 29.0624 61.3907 28.7 61.526 28.3436L61.6858 28.3009L63.1606 31.4735C63.3386 31.8609 63.5725 32.3596 63.763 32.7276L63.0995 32.7769L62.5218 31.492H60.703L60.6778 31.5531C60.5179 31.9286 60.3463 32.3596 60.1987 32.7276H59.5347L60.9916 29.5796ZM60.9236 30.9999H62.3001L61.6124 29.4507L60.9236 30.9999Z" fill="#4C5A5A"/>
<path d="M67.9399 28.9154C67.4675 28.9097 67.0552 28.9034 66.5023 28.9034C66.4966 29.0383 66.4966 29.1984 66.4966 29.3028V31.8424C66.4966 32.0757 66.5023 32.5556 66.5143 32.7277H65.8505C65.8817 32.4327 65.8939 31.6453 65.8939 31.2459V29.9116C65.8939 29.6535 65.8939 29.2473 65.8817 28.9034C65.3282 28.9034 64.8925 28.9097 64.4248 28.9154C64.4433 28.7618 64.4498 28.559 64.4498 28.3684C65.003 28.3872 65.5315 28.3991 66.1944 28.3991C66.8647 28.3991 67.4239 28.3872 67.9896 28.3684C67.9584 28.5462 67.9465 28.7191 67.9399 28.9154Z" fill="#4C5A5A"/>
<path d="M69.7637 32.7277C69.7944 32.4327 69.8072 31.6453 69.8072 31.2465V29.8868C69.8072 29.4928 69.7944 28.7006 69.7637 28.4048C70.0033 28.4048 70.2307 28.3991 70.4275 28.3741C70.4155 28.5527 70.4085 29.0448 70.4085 29.2843V31.8424C70.4085 32.0763 70.4155 32.5556 70.4275 32.7277H69.7637Z" fill="#4C5A5A"/>
<path d="M72.3682 30.6804C72.3682 29.352 73.2716 28.3004 74.5859 28.3004C75.8398 28.3004 76.6884 29.2965 76.6884 30.4585C76.6884 31.7869 75.7845 32.8389 74.4688 32.8389C73.2163 32.8389 72.3682 31.8424 72.3682 30.6804ZM76.0676 30.5695C76.0676 29.4806 75.4097 28.8107 74.5372 28.8107C73.6151 28.8107 72.9885 29.6231 72.9885 30.5695C72.9885 31.6584 73.6457 32.328 74.5197 32.328C75.4403 32.328 76.0676 31.5161 76.0676 30.5695Z" fill="#4C5A5A"/>
<path d="M78.4744 31.2459L78.4984 29.7701C78.5049 29.377 78.4984 28.6388 78.4744 28.3436L78.6345 28.3009L81.4727 31.5898V29.8867C81.4727 29.4933 81.4603 28.7 81.424 28.4056C81.6634 28.4056 81.897 28.399 82.1059 28.374C82.0811 28.5526 82.0629 29.0447 82.0564 29.2843L82.0134 31.8794C82.0083 32.1183 82.0083 32.6169 82.0258 32.7888L81.8657 32.8323L79.0522 29.5918V31.8424C79.0522 32.0819 79.058 32.5555 79.0755 32.7276H78.4009C78.4373 32.4326 78.4678 31.6452 78.4744 31.2459Z" fill="#4C5A5A"/>
<path d="M85.0414 29.6535C85.2816 29.1367 85.4402 28.7737 85.5756 28.4176L85.7357 28.3749L87.2101 31.5472C87.3884 31.9349 87.622 32.4327 87.8127 32.8011L87.1483 32.8508L86.5712 31.5651H84.7525L84.7278 31.6268C84.5677 32.0023 84.3959 32.4327 84.2489 32.8011H83.5845L85.0414 29.6535ZM84.9738 31.0736H86.3499L85.6615 29.5241L84.9738 31.0736Z" fill="#4C5A5A"/>
<path d="M91.6247 32.826C91.2558 32.8019 90.8009 32.7953 90.3643 32.7953C89.9276 32.7953 89.4728 32.8019 89.1104 32.826C89.1409 32.5314 89.1533 31.7195 89.1533 31.3196V29.9607C89.1533 29.5668 89.1409 28.7737 89.1104 28.4787C89.3512 28.4787 89.5776 28.473 89.7748 28.4474C89.7624 28.6266 89.7559 29.1179 89.7559 29.3585V31.9044C89.7559 32.0023 89.7559 32.1618 89.7682 32.2853C89.94 32.2853 90.1379 32.291 90.3213 32.291C90.8191 32.291 91.2492 32.2853 91.667 32.2725C91.6422 32.4449 91.6298 32.6298 91.6247 32.826Z" fill="#4C5A5A"/>
<path d="M98.8888 32.3468C98.4769 32.6665 98.0038 32.838 97.4806 32.838C96.2216 32.838 95.3301 31.8367 95.3301 30.6804C95.3301 29.352 96.2893 28.3009 97.5985 28.3009C98.0591 28.3009 98.5504 28.454 98.8757 28.6878L98.7039 29.2411C98.3968 29.0013 97.9791 28.8477 97.5614 28.8477C96.6211 28.8477 95.9516 29.5853 95.9516 30.551C95.9516 31.6769 96.6459 32.2975 97.5177 32.2975C98.0955 32.2975 98.5198 32.0634 98.9325 31.6769L98.8888 32.3468Z" fill="#4C5A5A"/>
<path d="M100.423 30.6804C100.423 29.352 101.326 28.3004 102.641 28.3004C103.895 28.3004 104.743 29.2965 104.743 30.4585C104.743 31.7869 103.84 32.8389 102.525 32.8389C101.271 32.8389 100.423 31.8424 100.423 30.6804ZM104.122 30.5695C104.122 29.4806 103.464 28.8107 102.592 28.8107C101.67 28.8107 101.044 29.6231 101.044 30.5695C101.044 31.6584 101.701 32.328 102.573 32.328C103.495 32.328 104.122 31.5161 104.122 30.5695Z" fill="#4C5A5A"/>
<path d="M109.701 29.2843V30.9322C109.701 31.6518 109.547 32.0273 109.228 32.3402C108.902 32.6665 108.472 32.838 107.87 32.838C106.906 32.838 106.223 32.2298 106.223 31.2522V29.8868C106.223 29.4934 106.211 28.7 106.18 28.4056C106.425 28.4056 106.647 28.3991 106.85 28.374C106.831 28.5527 106.825 29.0448 106.825 29.2843V31.0553C106.825 31.9713 107.28 32.3038 107.986 32.3038C108.687 32.3038 109.099 31.8729 109.099 31.1847V29.8868C109.099 29.4934 109.087 28.7 109.05 28.4056C109.296 28.4056 109.523 28.3991 109.732 28.374C109.707 28.5527 109.701 29.0448 109.701 29.2843Z" fill="#4C5A5A"/>
<path d="M111.862 31.2459L111.886 29.7701C111.893 29.377 111.886 28.6388 111.862 28.3436L112.022 28.3009L114.86 31.5898V29.8867C114.86 29.4933 114.849 28.7 114.812 28.4056C115.051 28.4056 115.285 28.399 115.494 28.374C115.469 28.5526 115.451 29.0447 115.444 29.2843L115.401 31.8794C115.396 32.1183 115.396 32.6169 115.414 32.7888L115.253 32.8323L112.44 29.5918V31.8424C112.44 32.0819 112.446 32.5555 112.464 32.7276H111.789C111.825 32.4326 111.856 31.6452 111.862 31.2459Z" fill="#4C5A5A"/>
<path d="M120.681 32.3468C120.27 32.6665 119.796 32.838 119.275 32.838C118.015 32.838 117.124 31.8367 117.124 30.6804C117.124 29.352 118.082 28.3009 119.391 28.3009C119.852 28.3009 120.343 28.454 120.67 28.6878L120.497 29.2411C120.19 29.0013 119.772 28.8477 119.354 28.8477C118.414 28.8477 117.744 29.5853 117.744 30.551C117.744 31.6769 118.438 32.2975 119.31 32.2975C119.889 32.2975 120.312 32.0634 120.724 31.6769L120.681 32.3468Z" fill="#4C5A5A"/>
<path d="M122.548 32.7277C122.578 32.4327 122.591 31.6453 122.591 31.2465V29.8868C122.591 29.4928 122.578 28.7006 122.548 28.4048C122.787 28.4048 123.015 28.3991 123.212 28.3741C123.199 28.5527 123.192 29.0448 123.192 29.2843V31.8424C123.192 32.0763 123.199 32.5556 123.212 32.7277H122.548Z" fill="#4C5A5A"/>
<path d="M127.942 32.7527C127.574 32.7276 127.119 32.722 126.682 32.722C126.246 32.722 125.792 32.7276 125.429 32.7527C125.46 32.4574 125.471 31.6453 125.471 31.2459V29.8874C125.471 29.4934 125.46 28.7 125.429 28.4048C125.669 28.4048 125.896 28.3991 126.092 28.3741C126.08 28.5527 126.074 29.0448 126.074 29.2843V31.8302C126.074 31.9286 126.074 32.0876 126.086 32.2114C126.258 32.2114 126.455 32.2173 126.64 32.2173C127.137 32.2173 127.567 32.2114 127.985 32.1994C127.96 32.3715 127.949 32.5556 127.942 32.7527Z" fill="#4C5A5A"/>
<path d="M148.435 31.2706L148.628 29.8944C148.683 29.4922 148.776 28.6735 148.801 28.3458L148.962 28.3023C149.08 28.5811 149.265 28.977 149.383 29.2254L150.566 31.7784L151.748 29.2254C151.86 28.9836 152.077 28.5128 152.164 28.3023H152.312C152.35 28.655 152.461 29.4979 152.51 29.8882L152.702 31.2706C152.758 31.6731 152.888 32.442 152.956 32.7634L152.318 32.8129C152.306 32.6337 152.256 32.1192 152.213 31.8717L151.965 29.9692C151.748 30.4272 150.733 32.5657 150.628 32.826L150.473 32.8693C150.367 32.6152 149.401 30.5205 149.154 29.9755L148.9 31.8717C148.869 32.1135 148.813 32.5905 148.807 32.7634H148.188C148.262 32.4355 148.38 31.6797 148.435 31.2706Z" fill="#4C5A5A"/>
<path d="M157.366 32.7888C156.995 32.7641 156.536 32.7575 156.097 32.7575C155.657 32.7575 155.192 32.7641 154.833 32.7888C154.865 32.4916 154.877 31.6732 154.877 31.2707V29.901C154.877 29.5042 154.865 28.6679 154.833 28.3701C155.192 28.3891 155.614 28.4011 156.054 28.4011C156.494 28.4011 156.914 28.3891 157.286 28.3701C157.255 28.5499 157.243 28.7106 157.237 28.9091C156.871 28.9034 156.494 28.8969 156.054 28.8969C155.868 28.8969 155.669 28.8969 155.49 28.9034C155.484 29.0215 155.484 29.1885 155.484 29.2809V30.2168L156.995 30.2048C156.983 30.3533 156.976 30.5575 156.976 30.7373L155.484 30.7251V31.8717C155.484 31.9647 155.484 32.1383 155.49 32.2557C155.676 32.2557 155.868 32.262 156.054 32.262C156.555 32.262 156.989 32.2557 157.41 32.2427C157.385 32.417 157.373 32.5905 157.366 32.7888Z" fill="#4C5A5A"/>
<path d="M159.357 31.2706L159.382 29.7829C159.388 29.3867 159.382 28.6431 159.357 28.3458L159.519 28.3023L162.379 31.6168V29.9001C162.379 29.5041 162.367 28.7048 162.33 28.4076C162.571 28.4076 162.807 28.401 163.018 28.3763C162.993 28.5561 162.975 29.0519 162.968 29.2936L162.924 31.9084C162.918 32.1504 162.918 32.6522 162.937 32.826L162.776 32.8693L159.94 29.6029V31.8717C159.94 32.1135 159.946 32.5905 159.964 32.7634H159.283C159.32 32.4662 159.351 31.6731 159.357 31.2706Z" fill="#4C5A5A"/>
<path d="M167.859 28.9219C167.383 28.9162 166.968 28.9096 166.41 28.9096C166.405 29.0456 166.405 29.2069 166.405 29.3121V31.8717C166.405 32.1069 166.41 32.5905 166.423 32.7634H165.754C165.785 32.4662 165.798 31.6731 165.798 31.2706V29.926C165.798 29.6648 165.798 29.2567 165.785 28.9096C165.228 28.9096 164.788 28.9162 164.317 28.9219C164.336 28.7668 164.342 28.5617 164.342 28.37C164.9 28.3891 165.432 28.401 166.1 28.401C166.776 28.401 167.34 28.3891 167.91 28.37C167.879 28.5498 167.866 28.7233 167.859 28.9219Z" fill="#4C5A5A"/>
<path d="M169.835 29.591C170.075 29.0704 170.237 28.7049 170.374 28.3459L170.535 28.3024L172.021 31.4997C172.201 31.8899 172.436 32.3923 172.628 32.7641L171.959 32.8138L171.376 31.5182H169.543L169.519 31.5802C169.358 31.9585 169.185 32.3923 169.036 32.7641H168.367L169.835 29.591ZM169.767 31.0223H171.154L170.46 29.4607L169.767 31.0223Z" fill="#4C5A5A"/>
<path d="M176.774 32.7888C176.403 32.7641 175.945 32.7575 175.505 32.7575C175.066 32.7575 174.607 32.7641 174.242 32.7888C174.272 32.4916 174.285 31.6732 174.285 31.2707V29.901C174.285 29.5042 174.272 28.7049 174.242 28.4076C174.483 28.4076 174.713 28.4011 174.911 28.3763C174.898 28.5561 174.892 29.0519 174.892 29.2937V31.8589C174.892 31.9585 174.892 32.1192 174.905 32.2427C175.078 32.2427 175.277 32.2501 175.462 32.2501C175.964 32.2501 176.397 32.2427 176.819 32.2307C176.793 32.4042 176.781 32.5905 176.774 32.7888Z" fill="#4C5A5A"/>
<path d="M184.801 31.5864C184.602 32.1198 184.466 32.4725 184.349 32.8315L184.2 32.875L182.992 29.6592L182.23 31.6177C182.113 31.9334 181.921 32.3735 181.735 32.875H181.587L180.429 29.684C180.286 29.2872 180.1 28.7859 179.945 28.4196L180.602 28.3706L181.704 31.5679L182.478 29.5412L182.918 28.3516L183.073 28.3081L184.267 31.556L184.949 29.5972C185.073 29.2254 185.216 28.7916 185.333 28.4133H186.002L184.801 31.5864Z" fill="#4C5A5A"/>
<path d="M189.779 32.7888C189.408 32.7641 188.949 32.7575 188.509 32.7575C188.069 32.7575 187.605 32.7641 187.246 32.7888C187.277 32.4916 187.29 31.6732 187.29 31.2707V29.901C187.29 29.5042 187.277 28.6679 187.246 28.3701C187.605 28.3891 188.026 28.4011 188.466 28.4011C188.905 28.4011 189.327 28.3891 189.699 28.3701C189.667 28.5499 189.656 28.7106 189.648 28.9091C189.284 28.9034 188.905 28.8969 188.466 28.8969C188.28 28.8969 188.083 28.8969 187.903 28.9034C187.897 29.0215 187.897 29.1885 187.897 29.2809V30.2168L189.408 30.2048C189.395 30.3533 189.389 30.5575 189.389 30.7373L187.897 30.7251V31.8717C187.897 31.9647 187.897 32.1383 187.903 32.2557C188.088 32.2557 188.28 32.262 188.466 32.262C188.967 32.262 189.401 32.2557 189.822 32.2427C189.798 32.417 189.785 32.5905 189.779 32.7888Z" fill="#4C5A5A"/>
<path d="M194.113 32.7888C193.741 32.7641 193.283 32.7575 192.843 32.7575C192.403 32.7575 191.945 32.7641 191.58 32.7888C191.61 32.4916 191.623 31.6732 191.623 31.2707V29.901C191.623 29.5042 191.61 28.7049 191.58 28.4076C191.821 28.4076 192.05 28.4011 192.248 28.3763C192.236 28.5561 192.23 29.0519 192.23 29.2937V31.8589C192.23 31.9585 192.23 32.1192 192.242 32.2427C192.416 32.2427 192.614 32.2501 192.799 32.2501C193.301 32.2501 193.734 32.2427 194.156 32.2307C194.131 32.4042 194.118 32.5905 194.113 32.7888Z" fill="#4C5A5A"/>
<path d="M198.365 32.7888C197.994 32.7641 197.535 32.7575 197.096 32.7575C196.656 32.7575 196.198 32.7641 195.833 32.7888C195.863 32.4916 195.875 31.6732 195.875 31.2707V29.901C195.875 29.5042 195.863 28.7049 195.833 28.4076C196.074 28.4076 196.303 28.4011 196.501 28.3763C196.489 28.5561 196.482 29.0519 196.482 29.2937V31.8589C196.482 31.9585 196.482 32.1192 196.496 32.2427C196.669 32.2427 196.867 32.2501 197.053 32.2501C197.554 32.2501 197.988 32.2427 198.41 32.2307C198.384 32.4042 198.372 32.5905 198.365 32.7888Z" fill="#4C5A5A"/>
<path d="M199.547 32.764C199.579 32.4668 199.591 31.6732 199.591 31.2706V29.901C199.591 29.5042 199.579 28.7049 199.547 28.4076C199.764 28.4076 200.464 28.3763 200.743 28.3763C201.851 28.3763 202.279 28.9899 202.279 29.4979C202.279 29.9445 201.988 30.266 201.604 30.4215C202.185 30.607 202.477 30.9976 202.477 31.4931C202.477 32.169 201.913 32.764 200.86 32.764H199.547ZM200.65 30.248C201.301 30.248 201.659 29.9877 201.659 29.5602C201.659 29.1387 201.319 28.9034 200.699 28.9034C200.464 28.9034 200.316 28.9154 200.191 28.9219C200.185 29.0269 200.185 29.1941 200.185 29.2871V29.889C200.185 30.0182 200.185 30.1485 200.191 30.2361C200.328 30.2418 200.488 30.248 200.65 30.248ZM200.817 32.2369C201.449 32.2369 201.851 32.0017 201.851 31.4746C201.851 31.0408 201.498 30.7373 200.699 30.7373C200.508 30.7373 200.34 30.7373 200.185 30.7558V31.8717C200.185 31.9769 200.185 32.0819 200.191 32.2057C200.378 32.225 200.625 32.2369 200.817 32.2369Z" fill="#4C5A5A"/>
<path d="M206.595 32.7888C206.223 32.7641 205.764 32.7575 205.325 32.7575C204.885 32.7575 204.421 32.7641 204.062 32.7888C204.093 32.4916 204.105 31.6732 204.105 31.2707V29.901C204.105 29.5042 204.093 28.6679 204.062 28.3701C204.421 28.3891 204.841 28.4011 205.281 28.4011C205.721 28.4011 206.143 28.3891 206.514 28.3701C206.483 28.5499 206.47 28.7106 206.464 28.9091C206.099 28.9034 205.721 28.8969 205.281 28.8969C205.095 28.8969 204.897 28.8969 204.718 28.9034C204.711 29.0215 204.711 29.1885 204.711 29.2809V30.2168L206.223 30.2048C206.211 30.3533 206.205 30.5575 206.205 30.7373L204.711 30.7251V31.8717C204.711 31.9647 204.711 32.1383 204.718 32.2557C204.904 32.2557 205.095 32.262 205.281 32.262C205.783 32.262 206.216 32.2557 206.638 32.2427C206.613 32.417 206.6 32.5905 206.595 32.7888Z" fill="#4C5A5A"/>
<path d="M208.558 32.764C208.589 32.4668 208.601 31.6732 208.601 31.2706V29.901C208.601 29.5042 208.589 28.7049 208.558 28.4076C208.799 28.4076 209.028 28.4011 209.226 28.3763C209.215 28.5561 209.208 29.0519 209.208 29.2937V31.8717C209.208 32.1069 209.215 32.5905 209.226 32.764H208.558Z" fill="#4C5A5A"/>
<path d="M211.166 31.2706L211.191 29.7829C211.197 29.3867 211.191 28.6431 211.166 28.3458L211.328 28.3023L214.189 31.6168V29.9001C214.189 29.5041 214.176 28.7048 214.139 28.4076C214.381 28.4076 214.616 28.401 214.827 28.3763C214.801 28.5561 214.784 29.0519 214.777 29.2936L214.734 31.9084C214.728 32.1504 214.728 32.6522 214.746 32.826L214.585 32.8693L211.748 29.6029V31.8717C211.748 32.1135 211.755 32.5905 211.774 32.7634H211.092C211.129 32.4662 211.16 31.6731 211.166 31.2706Z" fill="#4C5A5A"/>
<path d="M218.413 32.875C217.144 32.875 216.172 31.8899 216.172 30.6449C216.172 29.3429 217.181 28.3024 218.531 28.3024C218.996 28.3024 219.565 28.4696 219.906 28.6926L219.734 29.2502C219.423 29.0021 218.891 28.8534 218.469 28.8534C217.466 28.8534 216.798 29.591 216.798 30.5951C216.798 31.6982 217.565 32.3303 218.482 32.3303C218.83 32.3303 219.101 32.2685 219.362 32.132V31.3574C219.362 31.2644 219.362 31.0971 219.349 30.9856C219.164 30.9791 219.212 30.9791 219.02 30.9791C218.71 30.9791 218.531 30.9856 218.178 30.9976C218.191 30.7871 218.191 30.5885 218.178 30.4401C218.557 30.4529 218.742 30.4585 219.02 30.4585C219.454 30.4585 219.634 30.4529 219.999 30.4335C219.969 30.6756 219.955 31.5366 219.955 31.9334V32.417C219.609 32.646 219.164 32.875 218.413 32.875Z" fill="#4C5A5A"/>
</g>
<defs>
<clipPath id="clip0_1020_8">
<rect width="220" height="34" fill="white"/>
</clipPath>
</defs>
</svg>
